<?xml version="1.0" encoding="UTF-8" standalone="no"?>
<!-- Created with Inkscape (http://www.inkscape.org/) -->

<svg
   width="150"
   height="150"
   id="svg2"
   sodipodi:version="0.32"
   inkscape:version="1.3 (0e150ed6c4, 2023-07-21)"
   sodipodi:docname="ALU.svg"
   version="1.0"
   xmlns:inkscape="http://www.inkscape.org/namespaces/inkscape"
   xmlns:sodipodi="http://sodipodi.sourceforge.net/DTD/sodipodi-0.dtd"
   xmlns="http://www.w3.org/2000/svg"
   xmlns:svg="http://www.w3.org/2000/svg"
   xmlns:rdf="http://www.w3.org/1999/02/22-rdf-syntax-ns#"
   xmlns:cc="http://creativecommons.org/ns#"
   xmlns:dc="http://purl.org/dc/elements/1.1/">
  <title
     id="title1">memory bytes</title>
  <defs
     id="defs4">
    <marker
       inkscape:stockid="Arrow2Lend"
       orient="auto"
       refY="0"
       refX="0"
       id="Arrow2Lend"
       style="overflow:visible">
      <path
         id="path2914"
         style="font-size:12px;fill-rule:evenodd;stroke-width:0.625;stroke-linejoin:round"
         d="M 8.7185878,4.0337352 -2.2072895,0.01601326 8.7185884,-4.0017078 c -1.7454984,2.3720609 -1.7354408,5.6174519 -6e-7,8.035443 z"
         transform="matrix(-1.1,0,0,-1.1,-1.1,0)" />
    </marker>
    <marker
       inkscape:stockid="Arrow2Lstart"
       orient="auto"
       refY="0"
       refX="0"
       id="Arrow2Lstart"
       style="overflow:visible">
      <path
         id="path2917"
         style="font-size:12px;fill-rule:evenodd;stroke-width:0.625;stroke-linejoin:round"
         d="M 8.7185878,4.0337352 -2.2072895,0.01601326 8.7185884,-4.0017078 c -1.7454984,2.3720609 -1.7354408,5.6174519 -6e-7,8.035443 z"
         transform="matrix(1.1,0,0,1.1,1.1,0)" />
    </marker>
  </defs>
  <sodipodi:namedview
     id="base"
     pagecolor="#ffffff"
     bordercolor="#666666"
     borderopacity="1.0"
     gridtolerance="10000"
     guidetolerance="10"
     objecttolerance="10"
     inkscape:pageopacity="0.0"
     inkscape:pageshadow="2"
     inkscape:zoom="2"
     inkscape:cx="110.5"
     inkscape:cy="64.75"
     inkscape:document-units="px"
     inkscape:current-layer="layer4"
     inkscape:window-width="1920"
     inkscape:window-height="1017"
     inkscape:window-x="-8"
     inkscape:window-y="-8"
     width="175px"
     height="150px"
     inkscape:showpageshadow="2"
     inkscape:pagecheckerboard="0"
     inkscape:deskcolor="#d1d1d1"
     inkscape:window-maximized="1" />
  <metadata
     id="metadata7">
    <rdf:RDF>
      <cc:Work
         rdf:about="">
        <dc:format>image/svg+xml</dc:format>
        <dc:type
           rdf:resource="http://purl.org/dc/dcmitype/StillImage" />
      </cc:Work>
    </rdf:RDF>
  </metadata>
  <g
     inkscape:groupmode="layer"
     id="layer4"
     inkscape:label="fondo">
    <rect
       width="142"
       height="143.5"
       rx="28.399998"
       fill="#0C0A09"
       id="rect1-8"
       inkscape:label="rect1"
       style="opacity:1;mix-blend-mode:darken;fill:#d5f3ff;fill-opacity:1;stroke-width:0.557609"
       x="2"
       y="3" />
  </g>
  <g
     inkscape:label="Layer 1"
     inkscape:groupmode="layer"
     id="layer1">
    <g
       id="g3022"
       transform="translate(-11.5)"
       style="fill:#00660b;fill-opacity:1">
      <path
         style="fill:#00660b;fill-opacity:1;fill-rule:evenodd;stroke:none;stroke-width:1px;stroke-linecap:butt;stroke-linejoin:miter;stroke-opacity:1"
         d="m 50.03125,25.625 v 0.5 c 0,0 0,0.499614 0,0.5 0,0.0135 10e-7,-1e-6 0,17.5 h 1 c 0,-9 0,-13.5 0,-15.75 0,-1.125 0,-1.6875 0,-1.96875 0,-0.140625 0,-0.214844 0,-0.25 0,-0.01758 0,-0.02686 0,-0.03125 0,0 -0.125,1e-6 -0.25,0 v -0.5 h -0.25 z"
         id="path2760" />
      <path
         d="M 54.976367,33.421735 50.556873,45.4402 46.137379,33.421735 c 2.609267,1.920048 6.179198,1.908985 8.838988,0 z"
         style="font-size:12px;fill-rule:evenodd;stroke-width:0.625;stroke-linejoin:round;fill:#00660b;fill-opacity:1"
         id="path3028" />
    </g>
    <g
       id="g3014"
       transform="translate(-11.5)"
       style="fill:#00660b;fill-opacity:1">
      <path
         style="fill:#00660b;fill-opacity:1;fill-rule:evenodd;stroke:none;stroke-width:1px;stroke-linecap:butt;stroke-linejoin:miter;stroke-opacity:1"
         d="m 124.375,25.1875 v 0.5 c 0,0 0,0.499614 0,0.5 0,0.0135 0,-1e-6 0,17.5 h 1 c 0,-9 0,-13.5 0,-15.75 0,-1.125 0,-1.6875 0,-1.96875 0,-0.140625 0,-0.214844 0,-0.25 0,-0.01758 0,-0.02686 0,-0.03125 0,0 -0.125,1e-6 -0.25,0 v -0.5 h -0.25 z"
         id="path2942" />
      <path
         d="m 129.30328,33.007726 -4.4195,12.018465 -4.41949,-12.018465 c 2.60927,1.920048 6.1792,1.908985 8.83899,0 z"
         style="font-size:12px;fill-rule:evenodd;stroke-width:0.625;stroke-linejoin:round;fill:#00660b;fill-opacity:1"
         id="path3020" />
    </g>
    <text
       xml:space="preserve"
       style="font-style:normal;font-variant:normal;font-weight:normal;font-stretch:normal;font-size:12px;line-height:0%;font-family:'Bitstream Vera Sans';-inkscape-font-specification:'Bitstream Vera Sans, Normal';font-variant-ligatures:normal;font-variant-caps:normal;font-variant-numeric:normal;font-variant-east-asian:normal;text-align:start;writing-mode:lr-tb;text-anchor:start;fill:#000000;fill-opacity:1;stroke:none;stroke-width:1px;stroke-linecap:butt;stroke-linejoin:miter;stroke-opacity:1"
       x="34.720932"
       y="21.362183"
       id="text2944"><tspan
         sodipodi:role="line"
         id="tspan4"
         x="34.720932"
         y="21.362183">A</tspan></text>
    <text
       xml:space="preserve"
       style="font-style:normal;font-variant:normal;font-weight:normal;font-stretch:normal;font-size:12px;line-height:0%;font-family:'Bitstream Vera Sans';-inkscape-font-specification:'Bitstream Vera Sans, Normal';font-variant-ligatures:normal;font-variant-caps:normal;font-variant-numeric:normal;font-variant-east-asian:normal;text-align:start;writing-mode:lr-tb;text-anchor:start;fill:#000000;fill-opacity:1;stroke:none;stroke-width:1px;stroke-linecap:butt;stroke-linejoin:miter;stroke-opacity:1"
       x="109.75"
       y="21.862183"
       id="text2948"><tspan
         sodipodi:role="line"
         id="tspan1"
         x="109.75"
         y="21.862183">B</tspan></text>
    <path
       style="fill:#0066cc;fill-opacity:1;fill-rule:evenodd;stroke:#000000;stroke-width:1.5;stroke-linecap:round;stroke-linejoin:round;stroke-miterlimit:4;stroke-dasharray:none;stroke-opacity:1"
       d="M 16.739673,45.362183 H 56 L 74.85641,78.022437 94.53461,44.938789 H 132.5 L 97.92741,103.82027 H 50.5 c 0,0 -25.371,-43.93844 -33.747271,-58.446566"
       id="path1872"
       sodipodi:nodetypes="cccccccs" />
    <g
       id="g2998"
       transform="translate(-11.5)"
       style="fill:#00660b;fill-opacity:1">
      <path
         style="fill:#00660b;fill-opacity:1;fill-rule:evenodd;stroke:none;stroke-width:1.06365px;stroke-linecap:butt;stroke-linejoin:miter;stroke-opacity:1"
         d="m 85.5625,104.15625 c 10e-7,9.40997 0,14.11626 0,16.46875 0,1.17625 0,1.73719 0,2.03125 0,0.14703 0,0.24449 0,0.28125 0,0.0184 0,0.0267 0,0.0312 h 0.53125 0.53125 c 0,0 3e-6,0.007 0,-18.8125 z"
         id="path2982" />
      <path
         d="m 90.82061,111.5931 -4.700774,12.78338 -4.700774,-12.78338 c 2.775335,2.04225 6.572475,2.03048 9.401548,0 z"
         style="font-size:12px;fill-rule:evenodd;stroke-width:0.625;stroke-linejoin:round;fill:#00660b;fill-opacity:1"
         id="path3004" />
    </g>
    <text
       xml:space="preserve"
       style="font-style:normal;font-variant:normal;font-weight:normal;font-stretch:normal;font-size:12px;line-height:0%;font-family:'Bitstream Vera Sans';-inkscape-font-specification:'Bitstream Vera Sans, Normal';font-variant-ligatures:normal;font-variant-caps:normal;font-variant-numeric:normal;font-variant-east-asian:normal;fill:#000000;fill-opacity:1;stroke:none;stroke-width:1px;stroke-linecap:butt;stroke-linejoin:miter;stroke-opacity:1"
       x="48.728233"
       y="135.86218"
       id="text2986"
       inkscape:label="text2986"><tspan
         sodipodi:role="line"
         id="tspan5"
         x="48.728233"
         y="135.86218">Resultado</tspan></text>
    <text
       xml:space="preserve"
       style="font-style:normal;font-variant:normal;font-weight:normal;font-stretch:normal;font-size:26.6667px;font-family:Consolas;-inkscape-font-specification:'Consolas, Normal';font-variant-ligatures:normal;font-variant-caps:normal;font-variant-numeric:normal;font-variant-east-asian:normal;opacity:1;fill:#ffffff;fill-opacity:1;stroke:#020202;stroke-width:0;stroke-linejoin:bevel;stroke-dasharray:none;stroke-opacity:0.244444;paint-order:fill markers stroke"
       x="53"
       y="98"
       id="text3"
       inkscape:label="text3"><tspan
         sodipodi:role="line"
         id="tspan3"
         x="53"
         y="98">ALU</tspan></text>
    <rect
       style="fill:#ffffff;fill-opacity:0;stroke:#000000;stroke-width:22.61;stroke-linejoin:round;stroke-opacity:0;paint-order:fill markers stroke"
       id="rect2"
       width="138.5"
       height="119.5"
       x="5"
       y="16"
       rx="51.200001"
       inkscape:label="rect2" />
    <rect
       style="fill:#000000;fill-opacity:0;stroke:#000000;stroke-width:21.3471;stroke-linejoin:round;stroke-opacity:0;paint-order:fill markers stroke"
       id="rect1"
       width="122.26287"
       height="97.262871"
       x="6.8685627"
       y="20.368563"
       rx="54.197914"
       inkscape:label="rect1" />
  </g>
</svg>
