<?xml version="1.0" encoding="UTF-8" standalone="no"?>
<!-- Created with Inkscape (http://www.inkscape.org/) -->

<svg
   width="175"
   height="150"
   id="svg2"
   sodipodi:version="0.32"
   inkscape:version="1.3 (0e150ed6c4, 2023-07-21)"
   sodipodi:docname="ALU1.svg"
   version="1.0"
   xmlns:inkscape="http://www.inkscape.org/namespaces/inkscape"
   xmlns:sodipodi="http://sodipodi.sourceforge.net/DTD/sodipodi-0.dtd"
   xmlns="http://www.w3.org/2000/svg"
   xmlns:svg="http://www.w3.org/2000/svg"
   xmlns:rdf="http://www.w3.org/1999/02/22-rdf-syntax-ns#"
   xmlns:cc="http://creativecommons.org/ns#"
   xmlns:dc="http://purl.org/dc/elements/1.1/">
  <defs
     id="defs4">
    <marker
       inkscape:stockid="Arrow2Lend"
       orient="auto"
       refY="0"
       refX="0"
       id="Arrow2Lend"
       style="overflow:visible">
      <path
         id="path2914"
         style="font-size:12px;fill-rule:evenodd;stroke-width:0.625;stroke-linejoin:round"
         d="M 8.7185878,4.0337352 L -2.2072895,0.016013256 L 8.7185884,-4.0017078 C 6.97309,-1.6296469 6.9831476,1.6157441 8.7185878,4.0337352 z "
         transform="matrix(-1.1,0,0,-1.1,-1.1,0)" />
    </marker>
    <marker
       inkscape:stockid="Arrow2Lstart"
       orient="auto"
       refY="0"
       refX="0"
       id="Arrow2Lstart"
       style="overflow:visible">
      <path
         id="path2917"
         style="font-size:12px;fill-rule:evenodd;stroke-width:0.625;stroke-linejoin:round"
         d="M 8.7185878,4.0337352 L -2.2072895,0.016013256 L 8.7185884,-4.0017078 C 6.97309,-1.6296469 6.9831476,1.6157441 8.7185878,4.0337352 z "
         transform="matrix(1.1,0,0,1.1,1.1,0)" />
    </marker>
  </defs>
  <sodipodi:namedview
     id="base"
     pagecolor="#ffffff"
     bordercolor="#666666"
     borderopacity="1.0"
     gridtolerance="10000"
     guidetolerance="10"
     objecttolerance="10"
     inkscape:pageopacity="0.0"
     inkscape:pageshadow="2"
     inkscape:zoom="2"
     inkscape:cx="110.5"
     inkscape:cy="67.75"
     inkscape:document-units="px"
     inkscape:current-layer="layer1"
     inkscape:window-width="1920"
     inkscape:window-height="1017"
     inkscape:window-x="-8"
     inkscape:window-y="-8"
     width="175px"
     height="150px"
     inkscape:showpageshadow="2"
     inkscape:pagecheckerboard="0"
     inkscape:deskcolor="#d1d1d1"
     inkscape:window-maximized="1" />
  <metadata
     id="metadata7">
    <rdf:RDF>
      <cc:Work
         rdf:about="">
        <dc:format>image/svg+xml</dc:format>
        <dc:type
           rdf:resource="http://purl.org/dc/dcmitype/StillImage" />
      </cc:Work>
    </rdf:RDF>
  </metadata>
  <g
     inkscape:label="Layer 1"
     inkscape:groupmode="layer"
     id="layer1">
    <g
       id="g3022">
      <path
         style="fill:black;fill-opacity:1;fill-rule:evenodd;stroke:none;stroke-width:1px;stroke-linecap:butt;stroke-linejoin:miter;stroke-opacity:1"
         d="M 50.03125,25.625 L 50.03125,26.125 C 50.03125,26.125 50.03125,26.624614 50.03125,26.625 C 50.03125,26.638503 50.031251,26.624999 50.03125,44.125 L 51.03125,44.125 C 51.03125,35.125 51.03125,30.625 51.03125,28.375 C 51.03125,27.25 51.03125,26.6875 51.03125,26.40625 C 51.03125,26.265625 51.03125,26.191406 51.03125,26.15625 C 51.03125,26.138672 51.03125,26.129395 51.03125,26.125 C 51.03125,26.125 50.90625,26.125001 50.78125,26.125 L 50.78125,25.625 L 50.53125,25.625 L 50.03125,25.625 z "
         id="path2760" />
      <path
         d="M 54.976367,33.421735 L 50.556873,45.4402 L 46.137379,33.421735 C 48.746646,35.341783 52.316577,35.33072 54.976367,33.421735 z "
         style="font-size:12px;fill-rule:evenodd;stroke-width:0.625;stroke-linejoin:round"
         id="path3028" />
    </g>
    <g
       id="g3014">
      <path
         style="fill:black;fill-opacity:1;fill-rule:evenodd;stroke:none;stroke-width:1px;stroke-linecap:butt;stroke-linejoin:miter;stroke-opacity:1"
         d="M 124.375,25.1875 L 124.375,25.6875 C 124.375,25.6875 124.375,26.187114 124.375,26.1875 C 124.375,26.201003 124.375,26.187499 124.375,43.6875 L 125.375,43.6875 C 125.375,34.6875 125.375,30.1875 125.375,27.9375 C 125.375,26.8125 125.375,26.25 125.375,25.96875 C 125.375,25.828125 125.375,25.753906 125.375,25.71875 C 125.375,25.701172 125.375,25.691895 125.375,25.6875 C 125.375,25.6875 125.25,25.687501 125.125,25.6875 L 125.125,25.1875 L 124.875,25.1875 L 124.375,25.1875 z "
         id="path2942" />
      <path
         d="M 129.30328,33.007726 L 124.88378,45.026191 L 120.46429,33.007726 C 123.07356,34.927774 126.64349,34.916711 129.30328,33.007726 z "
         style="font-size:12px;fill-rule:evenodd;stroke-width:0.625;stroke-linejoin:round"
         id="path3020" />
    </g>
    <text
       xml:space="preserve"
       style="font-style:normal;font-variant:normal;font-weight:normal;font-stretch:normal;font-size:12px;line-height:0%;font-family:'Bitstream Vera Sans';-inkscape-font-specification:'Bitstream Vera Sans, Normal';font-variant-ligatures:normal;font-variant-caps:normal;font-variant-numeric:normal;font-variant-east-asian:normal;text-align:start;writing-mode:lr-tb;text-anchor:start;fill:#000000;fill-opacity:1;stroke:none;stroke-width:1px;stroke-linecap:butt;stroke-linejoin:miter;stroke-opacity:1"
       x="46.220932"
       y="21.362183"
       id="text2944"><tspan
         sodipodi:role="line"
         id="tspan4"
         x="46.220932"
         y="21.362183">A</tspan></text>
    <text
       xml:space="preserve"
       style="font-style:normal;font-variant:normal;font-weight:normal;font-stretch:normal;font-size:12px;line-height:0%;font-family:'Bitstream Vera Sans';-inkscape-font-specification:'Bitstream Vera Sans, Normal';font-variant-ligatures:normal;font-variant-caps:normal;font-variant-numeric:normal;font-variant-east-asian:normal;text-align:start;writing-mode:lr-tb;text-anchor:start;fill:#000000;fill-opacity:1;stroke:none;stroke-width:1px;stroke-linecap:butt;stroke-linejoin:miter;stroke-opacity:1"
       x="121.25"
       y="21.862183"
       id="text2948"><tspan
         sodipodi:role="line"
         id="tspan1"
         x="121.25"
         y="21.862183">B</tspan></text>
    <path
       style="fill:#0066cc;fill-opacity:1;fill-rule:evenodd;stroke:black;stroke-width:1.5;stroke-linecap:round;stroke-linejoin:round;stroke-miterlimit:4;stroke-dasharray:none;stroke-opacity:1"
       d="M 28.239673,45.362183 L 67.5,45.362183 L 86.35641,78.022437 L 106.03461,44.938789 L 144,44.938789 L 109.42741,103.82027 L 62,103.82027 C 62,103.82027 36.629,59.88183 28.252729,45.373704"
       id="path1872"
       sodipodi:nodetypes="cccccccs" />
    <g
       id="g2998">
      <path
         style="fill:black;fill-opacity:1;fill-rule:evenodd;stroke:none;stroke-width:1.06364536px;stroke-linecap:butt;stroke-linejoin:miter;stroke-opacity:1"
         d="M 85.5625,104.15625 C 85.562501,113.56622 85.5625,118.27251 85.5625,120.625 C 85.5625,121.80125 85.5625,122.36219 85.5625,122.65625 C 85.5625,122.80328 85.5625,122.90074 85.5625,122.9375 C 85.5625,122.95588 85.5625,122.96416 85.5625,122.96875 L 86.09375,122.96875 L 86.625,122.96875 C 86.625,122.96875 86.625003,122.97619 86.625,104.15625 L 85.5625,104.15625 z "
         id="path2982" />
      <path
         d="M 90.82061,111.5931 L 86.119836,124.37648 L 81.419062,111.5931 C 84.194397,113.63535 87.991537,113.62358 90.82061,111.5931 z "
         style="font-size:12px;fill-rule:evenodd;stroke-width:0.625;stroke-linejoin:round"
         id="path3004" />
    </g>
    <text
       xml:space="preserve"
       style="font-style:normal;font-variant:normal;font-weight:normal;font-stretch:normal;font-size:12px;line-height:0%;font-family:'Bitstream Vera Sans';-inkscape-font-specification:'Bitstream Vera Sans, Normal';font-variant-ligatures:normal;font-variant-caps:normal;font-variant-numeric:normal;font-variant-east-asian:normal;fill:#000000;fill-opacity:1;stroke:none;stroke-width:1px;stroke-linecap:butt;stroke-linejoin:miter;stroke-opacity:1"
       x="60.228233"
       y="135.86218"
       id="text2986"><tspan
         sodipodi:role="line"
         id="tspan5"
         x="60.228233"
         y="135.86218">Resultado</tspan></text>
    <text
       xml:space="preserve"
       style="font-style:normal;font-variant:normal;font-weight:normal;font-stretch:normal;font-size:26.6667px;font-family:Consolas;-inkscape-font-specification:'Consolas, Normal';font-variant-ligatures:normal;font-variant-caps:normal;font-variant-numeric:normal;font-variant-east-asian:normal;opacity:1;fill:#ffffff;fill-opacity:1;stroke:#020202;stroke-width:0;stroke-linejoin:bevel;stroke-dasharray:none;stroke-opacity:0.244444;paint-order:fill markers stroke"
       x="64.5"
       y="98"
       id="text3"><tspan
         sodipodi:role="line"
         id="tspan3"
         x="64.5"
         y="98">ALU</tspan></text>
  </g>
</svg>
