<?xml version="1.0" encoding="UTF-8" standalone="no"?>
<svg
   width="256"
   height="256"
   viewBox="0 0 256 256"
   fill="none"
   version="1.1"
   id="svg6"
   sodipodi:docname="logo-Sim-AC-dark.svg"
   inkscape:version="1.3 (0e150ed6c4, 2023-07-21)"
   xml:space="preserve"
   xmlns:inkscape="http://www.inkscape.org/namespaces/inkscape"
   xmlns:sodipodi="http://sodipodi.sourceforge.net/DTD/sodipodi-0.dtd"
   xmlns:xlink="http://www.w3.org/1999/xlink"
   xmlns="http://www.w3.org/2000/svg"
   xmlns:svg="http://www.w3.org/2000/svg"><sodipodi:namedview
     id="namedview6"
     pagecolor="#ffffff"
     bordercolor="#000000"
     borderopacity="0.25"
     inkscape:showpageshadow="2"
     inkscape:pageopacity="0.0"
     inkscape:pagecheckerboard="0"
     inkscape:deskcolor="#d1d1d1"
     inkscape:zoom="2.2677135"
     inkscape:cx="143.31616"
     inkscape:cy="125.89774"
     inkscape:window-width="1920"
     inkscape:window-height="1017"
     inkscape:window-x="-8"
     inkscape:window-y="-8"
     inkscape:window-maximized="1"
     inkscape:current-layer="g6"
     showgrid="false" /><g
     clip-path="url(#clip0_110_136)"
     id="g6"
     style="mix-blend-mode:normal"><path
       fill="#5acce6"
       opacity="1"
       stroke="none"
       d="m 33.264579,173.82719 c 0,-5.225 0,-10.44995 0,-13.85835 11.485046,0.31036 22.490782,1.55764 33.30792,0.51779 5.810815,-0.55859 11.44842,-4.73488 16.899087,-7.82404 10.923415,-6.1908 21.806654,-5.90084 32.866874,-0.7359 2.98234,1.39271 6.18277,2.39329 8.92671,4.20356 15.02756,9.91397 29.59789,7.85892 44.28734,-1.06297 10.1961,-6.19277 21.06419,-9.12647 32.78478,-5.38039 12.25794,3.91783 13.73815,6.57334 10.27289,21.03258 -15.97426,-8.32593 -30.35522,-5.75967 -44.54499,2.92752 -13.00823,7.96381 -26.75699,10.05995 -39.90478,1.51124 -16.79384,-10.91936 -33.247635,-12.51106 -50.444809,-1.90907 -14.703573,9.06473 -29.531649,9.56659 -44.451022,0.57803 z"
       id="path4-6"
       style="fill:#1c3557;fill-opacity:1;stroke-width:2.03186" /><path
       fill="#5bcde7"
       opacity="1"
       stroke="none"
       d="m 47.572958,200.00821 c 11.32917,3.86719 21.347958,0.78964 30.097741,-4.34901 16.623908,-9.76307 32.714721,-9.28765 48.909201,-0.10224 14.14912,8.02528 27.64719,7.21273 41.70109,-0.51394 12.36328,-6.79715 25.57134,-10.38395 39.14969,-3.01126 2.7816,1.51034 4.76714,4.48224 8.62274,8.24889 -3.83195,0.49156 -4.89346,0.98562 -5.4901,0.65168 -13.25866,-7.42078 -26.59538,-6.45651 -39.14099,0.96754 -16.86108,9.97783 -33.18442,9.83472 -49.59401,-0.35647 -15.80604,-9.8164 -30.568037,-4.68782 -45.229186,2.82113 -11.719189,6.00217 -23.655895,7.74118 -35.546933,0.8626 -2.508131,-1.4509 -3.996473,-4.65933 -5.954696,-7.05795 0.686482,-0.64386 1.372968,-1.28772 2.059451,-1.93158 3.221948,1.18954 6.443875,2.37907 10.416002,3.77059 z"
       id="path6-3"
       style="fill:#71cae8;fill-opacity:1;stroke-width:1.91248" /><path
       fill="#edf6fc"
       opacity="1"
       stroke="none"
       d="m 33.771018,179.92086 c 15.04678,8.32948 29.873211,7.81692 44.575153,-1.44086 17.195246,-10.82782 33.647229,-9.2022 50.439229,1.94973 13.14632,8.73078 26.89356,6.59 39.90033,-1.54344 14.18819,-8.87221 28.56757,-11.4931 44.23827,-2.21544 1.22589,1.95109 1.95152,3.56518 2.24464,5.26973 0.22779,1.32442 -0.084,2.76169 -0.22965,5.56904 -17.71482,-11.85616 -33.98647,-6.44218 -50.09488,2.89784 -11.75831,6.81773 -23.41151,5.99844 -35.62896,0.20679 -18.0693,-8.56565 -36.311936,-13.50695 -55.08512,-0.48295 -10.820608,7.50684 -23.115142,7.50121 -34.550756,1.036 -2.842833,-1.60725 -4.003475,-6.83332 -5.808256,-11.24651 z"
       id="path5-7"
       style="stroke-width:2.05325;fill:#acf6fc;fill-opacity:1" /><g
       id="g2"
       transform="matrix(0.96066,0,0,1.03346,-0.34683184,-74.932805)"><path
         fill="#ffed00"
         d="M 55.620374,117.63891 H 206.97065 c 10.82989,0 19.60749,8.85241 19.60749,19.76668 v 39.53338 c 0,10.9222 -8.7776,19.77463 -19.60749,19.77463 H 55.620374 c -10.822014,0 -19.599603,-8.85243 -19.599603,-19.77463 v -39.53338 c 0,-10.91427 8.777589,-19.76668 19.599603,-19.76668 z m 0,0"
         fill-opacity="1"
         fill-rule="nonzero"
         id="path81"
         style="stroke-width:2.02933" /><g
         fill="#000000"
         fill-opacity="1"
         id="g84"
         transform="matrix(2.0278522,0,0,2.0038063,-234.62357,-421.5024)"><g
           transform="translate(141.93298,296.70777)"
           id="g83"><g
             id="g82"><path
               d="M 11.25,-4.359375 C 11.25,-2.941406 10.738281,-1.820312 9.71875,-1 8.695312,-0.1875 7.273438,0.21875 5.453125,0.21875 c -1.679687,0 -3.15625,-0.3164062 -4.4375,-0.953125 v -3.09375 c 1.050781,0.480469 1.941406,0.820313 2.671875,1.015625 0.738281,0.1875 1.414062,0.28125 2.03125,0.28125 0.726562,0 1.285156,-0.140625 1.671875,-0.421875 0.394531,-0.28125 0.59375,-0.695313 0.59375,-1.25 0,-0.300781 -0.089844,-0.570313 -0.265625,-0.8125 -0.167969,-0.238281 -0.417969,-0.46875 -0.75,-0.6875 C 6.632812,-5.929688 5.957031,-6.289062 4.9375,-6.78125 3.96875,-7.226562 3.242188,-7.660156 2.765625,-8.078125 2.285156,-8.492188 1.898438,-8.976562 1.609375,-9.53125 1.328125,-10.082031 1.1875,-10.726562 1.1875,-11.46875 c 0,-1.382812 0.46875,-2.472656 1.40625,-3.265625 0.945312,-0.800781 2.253906,-1.203125 3.921875,-1.203125 0.8125,0 1.585937,0.101562 2.328125,0.296875 0.738281,0.199219 1.515625,0.46875 2.328125,0.8125 l -1.078125,2.59375 C 9.257812,-12.578125 8.566406,-12.816406 8.015625,-12.953125 7.472656,-13.085938 6.9375,-13.15625 6.40625,-13.15625 c -0.636719,0 -1.121094,0.148438 -1.453125,0.4375 -0.335937,0.292969 -0.5,0.679688 -0.5,1.15625 0,0.292969 0.066406,0.546875 0.203125,0.765625 0.132812,0.21875 0.347656,0.433594 0.640625,0.640625 0.300781,0.199219 1.003906,0.5625 2.109375,1.09375 1.46875,0.699219 2.472656,1.402344 3.015625,2.109375 0.550781,0.710937 0.828125,1.574219 0.828125,2.59375 z m 0,0"
               id="path82" /></g></g></g><g
         fill="#000000"
         fill-opacity="1"
         id="g87"
         transform="matrix(2.0278522,0,0,2.0038063,-234.62357,-421.5024)"><g
           transform="translate(154.04802,296.70777)"
           id="g86"><g
             id="g85"><path
               d="m 1.578125,-15.109375 c 0,-1.070313 0.59375,-1.609375 1.78125,-1.609375 1.1875,0 1.78125,0.539062 1.78125,1.609375 0,0.5 -0.152344,0.898437 -0.453125,1.1875 C 4.394531,-13.640625 3.953125,-13.5 3.359375,-13.5 c -1.1875,0 -1.78125,-0.535156 -1.78125,-1.609375 z M 5,0 H 1.71875 V -12.015625 H 5 Z m 0,0"
               id="path84" /></g></g></g><g
         fill="#000000"
         fill-opacity="1"
         id="g90"
         transform="matrix(2.0278522,0,0,2.0038063,-234.62357,-421.5024)"><g
           transform="translate(160.7607,296.70777)"
           id="g89"><g
             id="g88"><path
               d="M 12.46875,0 H 9.203125 v -7.015625 c 0,-0.863281 -0.148437,-1.507813 -0.4375,-1.9375 -0.292969,-0.4375 -0.75,-0.65625 -1.375,-0.65625 -0.835937,0 -1.445313,0.308594 -1.828125,0.921875 C 5.1875,-8.070312 5,-7.0625 5,-5.65625 V 0 H 1.71875 v -12.015625 h 2.5 l 0.4375,1.546875 h 0.1875 c 0.320312,-0.550781 0.785156,-0.984375 1.390625,-1.296875 0.613281,-0.3125 1.316406,-0.46875 2.109375,-0.46875 1.789062,0 3.003906,0.589844 3.640625,1.765625 h 0.296875 c 0.320312,-0.5625 0.796875,-0.992188 1.421875,-1.296875 0.625,-0.3125 1.332031,-0.46875 2.125,-0.46875 1.351563,0 2.378906,0.351563 3.078125,1.046875 0.695312,0.699219 1.046875,1.820312 1.046875,3.359375 V 0 h -3.28125 v -7.015625 c 0,-0.863281 -0.148437,-1.507813 -0.4375,-1.9375 -0.292969,-0.4375 -0.746094,-0.65625 -1.359375,-0.65625 -0.804688,0 -1.40625,0.289063 -1.8125,0.859375 -0.398438,0.574219 -0.59375,1.480469 -0.59375,2.71875 z m 0,0"
               id="path87" /></g></g></g><g
         fill="#000000"
         fill-opacity="1"
         id="g93"
         transform="matrix(2.0278522,0,0,2.0038063,-234.62357,-421.5024)"><g
           transform="translate(182.35941,296.70777)"
           id="g92"><g
             id="g91"><path
               d="M 0.65625,-4.5625 V -7.234375 H 6.421875 V -4.5625 Z m 0,0"
               id="path90" /></g></g></g><g
         fill="#000000"
         fill-opacity="1"
         id="g96"
         transform="matrix(2.0278522,0,0,2.0038063,-234.62357,-421.5024)"><g
           transform="translate(189.43726,296.70777)"
           id="g95"><g
             id="g94"><path
               d="M 11.59375,0 10.453125,-3.734375 H 4.734375 L 3.59375,0 H 0 l 5.546875,-15.765625 h 4.0625 L 15.171875,0 Z M 9.65625,-6.53125 C 8.601562,-9.914062 8.007812,-11.828125 7.875,-12.265625 7.75,-12.710938 7.65625,-13.066406 7.59375,-13.328125 7.351562,-12.410156 6.675781,-10.144531 5.5625,-6.53125 Z m 0,0"
               id="path93" /></g></g></g><g
         fill="#000000"
         fill-opacity="1"
         id="g99"
         transform="matrix(2.0278522,0,0,2.0038063,-234.62357,-421.5024)"><g
           transform="translate(204.61328,296.70777)"
           id="g98"><g
             id="g97"><path
               d="m 8.640625,-13.15625 c -1.25,0 -2.21875,0.476562 -2.90625,1.421875 -0.6875,0.9375 -1.03125,2.246094 -1.03125,3.921875 0,3.5 1.3125,5.25 3.9375,5.25 1.101563,0 2.441406,-0.273438 4.015625,-0.828125 v 2.796875 c -1.292969,0.5429688 -2.730469,0.8125 -4.3125,0.8125 -2.292969,0 -4.042969,-0.691406 -5.25,-2.078125 -1.210938,-1.382813 -1.8125,-3.375 -1.8125,-5.96875 0,-1.632813 0.296875,-3.066406 0.890625,-4.296875 0.59375,-1.226562 1.445313,-2.171875 2.5625,-2.828125 1.113281,-0.65625 2.414063,-0.984375 3.90625,-0.984375 1.53125,0 3.066406,0.371094 4.609375,1.109375 L 12.171875,-12.125 c -0.585937,-0.269531 -1.179687,-0.507812 -1.78125,-0.71875 -0.59375,-0.207031 -1.179687,-0.3125 -1.75,-0.3125 z m 0,0"
               id="path96" /></g></g></g></g><rect
       width="250.73065"
       height="249.40773"
       rx="50.146126"
       fill="#0C0A09"
       id="rect1"
       inkscape:label="rect1"
       style="opacity:1;mix-blend-mode:soft-light;fill:url(#linearGradient20);stroke:url(#linearGradient11);stroke-width:3.278;stroke-dasharray:none;stroke-opacity:1"
       x="2.8150513"
       y="2.9922178" /></g><defs
     id="defs6"><linearGradient
       id="swatch19"
       inkscape:swatch="solid"><stop
         style="stop-color:#197cce;stop-opacity:1;"
         offset="0"
         id="stop20" /></linearGradient><linearGradient
       id="linearGradient8"
       inkscape:swatch="gradient"><stop
         style="stop-color:#99cc00;stop-opacity:1;"
         offset="0"
         id="stop9" /><stop
         style="stop-color:#99cc00;stop-opacity:0;"
         offset="1"
         id="stop10" /></linearGradient><linearGradient
       id="swatch8"
       inkscape:swatch="solid"><stop
         style="stop-color:#99cc00;stop-opacity:0;"
         offset="0"
         id="stop8" /></linearGradient><linearGradient
       id="swatch1"
       inkscape:swatch="solid"><stop
         style="stop-color:#ffffff;stop-opacity:1;"
         offset="0"
         id="stop1" /></linearGradient><linearGradient
       id="swatch4"
       inkscape:swatch="solid"><stop
         style="stop-color:#99cc00;stop-opacity:1;"
         offset="0"
         id="stop5" /></linearGradient><clipPath
       id="clip0_110_136"><rect
         width="256"
         height="256"
         fill="white"
         id="rect6" /></clipPath><linearGradient
       inkscape:collect="always"
       xlink:href="#swatch4"
       id="linearGradient5"
       x1="157.10588"
       y1="211.32082"
       x2="193.80776"
       y2="211.32082"
       gradientUnits="userSpaceOnUse" /><filter
       style="color-interpolation-filters:sRGB"
       id="filter12"
       inkscape:label="filtro1"><feDiffuseLighting
         id="feDiffuseLighting12"
         lighting-color="rgb(255,255,121)"
         surfaceScale="-0.22727272727272663" /></filter><filter
       inkscape:label="Swiss Cheese"
       inkscape:menu="Overlays"
       inkscape:menu-tooltip="Random inner-bevel holes"
       style="color-interpolation-filters:sRGB;"
       id="filter254"
       x="-0.087780084"
       y="-0.43899979"
       width="1.1755602"
       height="1.8779996"><feTurbulence
         type="fractalNoise"
         baseFrequency="0.097"
         numOctaves="1"
         id="feTurbulence250" /><feColorMatrix
         values="1 0 0 0 0 0 1 0 0 0 0 0 1 0 0 0 0 0 20 -14"
         id="feColorMatrix250" /><feGaussianBlur
         stdDeviation="3.7"
         id="feGaussianBlur250" /><feColorMatrix
         values="1 0 0 0 0 0 1 0 0 0 0 0 1 0 0 0 0 0 70 0"
         result="result0"
         id="feColorMatrix251" /><feGaussianBlur
         stdDeviation="3.9"
         result="result1"
         id="feGaussianBlur251" /><feDiffuseLighting
         surfaceScale="-5"
         diffuseConstant="1.29"
         id="feDiffuseLighting251"><feDistantLight
           azimuth="225"
           elevation="45"
           id="feDistantLight251" /></feDiffuseLighting><feComposite
         in2="result0"
         operator="in"
         id="feComposite251" /><feBlend
         in2="SourceGraphic"
         mode="multiply"
         id="feBlend251" /><feComposite
         in2="SourceGraphic"
         operator="in"
         result="result2"
         id="feComposite252" /><feSpecularLighting
         in="result1"
         surfaceScale="-5"
         specularExponent="4.5"
         specularConstant="0.7"
         id="feSpecularLighting252"><feDistantLight
           elevation="33"
           azimuth="225"
           id="feDistantLight252" /></feSpecularLighting><feComposite
         in2="result0"
         operator="in"
         id="feComposite253" /><feComposite
         in2="result2"
         operator="atop"
         id="feComposite254" /></filter><filter
       inkscape:label="Swiss Cheese"
       inkscape:menu="Overlays"
       inkscape:menu-tooltip="Random inner-bevel holes"
       style="color-interpolation-filters:sRGB;"
       id="filter258"
       x="-0.08802584"
       y="-0.43781585"
       width="1.1760517"
       height="1.8756317"><feTurbulence
         type="fractalNoise"
         baseFrequency="0.097"
         numOctaves="1"
         id="feTurbulence254" /><feColorMatrix
         values="1 0 0 0 0 0 1 0 0 0 0 0 1 0 0 0 0 0 20 -14"
         id="feColorMatrix254" /><feGaussianBlur
         stdDeviation="3.7"
         id="feGaussianBlur254" /><feColorMatrix
         values="1 0 0 0 0 0 1 0 0 0 0 0 1 0 0 0 0 0 70 0"
         result="result0"
         id="feColorMatrix255" /><feGaussianBlur
         stdDeviation="3.9"
         result="result1"
         id="feGaussianBlur255" /><feDiffuseLighting
         surfaceScale="-5"
         diffuseConstant="1.29"
         id="feDiffuseLighting255"><feDistantLight
           azimuth="225"
           elevation="45"
           id="feDistantLight255" /></feDiffuseLighting><feComposite
         in2="result0"
         operator="in"
         id="feComposite255" /><feBlend
         in2="SourceGraphic"
         mode="multiply"
         id="feBlend255" /><feComposite
         in2="SourceGraphic"
         operator="in"
         result="result2"
         id="feComposite256" /><feSpecularLighting
         in="result1"
         surfaceScale="-5"
         specularExponent="4.5"
         specularConstant="0.7"
         id="feSpecularLighting256"><feDistantLight
           elevation="33"
           azimuth="225"
           id="feDistantLight256" /></feSpecularLighting><feComposite
         in2="result0"
         operator="in"
         id="feComposite257" /><feComposite
         in2="result2"
         operator="atop"
         id="feComposite258" /></filter><filter
       inkscape:label="Swiss Cheese"
       inkscape:menu="Overlays"
       inkscape:menu-tooltip="Random inner-bevel holes"
       style="color-interpolation-filters:sRGB;"
       id="filter262"
       x="-0.088033505"
       y="-0.49377652"
       width="1.176067"
       height="1.987553"><feTurbulence
         type="fractalNoise"
         baseFrequency="0.097"
         numOctaves="1"
         id="feTurbulence258" /><feColorMatrix
         values="1 0 0 0 0 0 1 0 0 0 0 0 1 0 0 0 0 0 20 -14"
         id="feColorMatrix258" /><feGaussianBlur
         stdDeviation="3.7"
         id="feGaussianBlur258" /><feColorMatrix
         values="1 0 0 0 0 0 1 0 0 0 0 0 1 0 0 0 0 0 70 0"
         result="result0"
         id="feColorMatrix259" /><feGaussianBlur
         stdDeviation="3.9"
         result="result1"
         id="feGaussianBlur259" /><feDiffuseLighting
         surfaceScale="-5"
         diffuseConstant="1.29"
         id="feDiffuseLighting259"><feDistantLight
           azimuth="225"
           elevation="45"
           id="feDistantLight259" /></feDiffuseLighting><feComposite
         in2="result0"
         operator="in"
         id="feComposite259" /><feBlend
         in2="SourceGraphic"
         mode="multiply"
         id="feBlend259" /><feComposite
         in2="SourceGraphic"
         operator="in"
         result="result2"
         id="feComposite260" /><feSpecularLighting
         in="result1"
         surfaceScale="-5"
         specularExponent="4.5"
         specularConstant="0.7"
         id="feSpecularLighting260"><feDistantLight
           elevation="33"
           azimuth="225"
           id="feDistantLight260" /></feSpecularLighting><feComposite
         in2="result0"
         operator="in"
         id="feComposite261" /><feComposite
         in2="result2"
         operator="atop"
         id="feComposite262" /></filter><linearGradient
       inkscape:collect="always"
       xlink:href="#swatch4"
       id="linearGradient11"
       gradientUnits="userSpaceOnUse"
       x1="3.7400367"
       y1="128.13705"
       x2="254.38461"
       y2="128.13705"
       gradientTransform="matrix(1.0070492,0,0,1.0035131,-1.7917322,-0.89113475)" /><linearGradient
       inkscape:collect="always"
       xlink:href="#swatch8"
       id="linearGradient20"
       x1="1.1760513"
       y1="127.69608"
       x2="255.18469"
       y2="127.69608"
       gradientUnits="userSpaceOnUse" /></defs></svg>
