<?xml version="1.0" encoding="UTF-8" standalone="no"?>
<svg
   width="256"
   height="256"
   viewBox="0 0 256 256"
   fill="none"
   version="1.1"
   id="svg6"
   sodipodi:docname="uner12.svg"
   inkscape:version="1.3 (0e150ed6c4, 2023-07-21)"
   xml:space="preserve"
   xmlns:inkscape="http://www.inkscape.org/namespaces/inkscape"
   xmlns:sodipodi="http://sodipodi.sourceforge.net/DTD/sodipodi-0.dtd"
   xmlns:xlink="http://www.w3.org/1999/xlink"
   xmlns="http://www.w3.org/2000/svg"
   xmlns:svg="http://www.w3.org/2000/svg"><sodipodi:namedview
     id="namedview6"
     pagecolor="#ffffff"
     bordercolor="#000000"
     borderopacity="0.25"
     inkscape:showpageshadow="2"
     inkscape:pageopacity="0.0"
     inkscape:pagecheckerboard="0"
     inkscape:deskcolor="#d1d1d1"
     inkscape:zoom="2.2677135"
     inkscape:cx="143.31616"
     inkscape:cy="125.89774"
     inkscape:window-width="1920"
     inkscape:window-height="1017"
     inkscape:window-x="-8"
     inkscape:window-y="-8"
     inkscape:window-maximized="1"
     inkscape:current-layer="g6"
     showgrid="false" /><g
     clip-path="url(#clip0_110_136)"
     id="g6"
     style="mix-blend-mode:normal"><rect
       width="256"
       height="256"
       rx="51.200001"
       fill="#0C0A09"
       id="rect1"
       inkscape:label="rect1"
       style="fill:#197cce;fill-opacity:1"
       x="-0.33397427"
       y="0.25836501" /><g
       id="g1"
       transform="matrix(0.9474301,0,0,1,4.2554611,0)"><path
         fill="#5acce6"
         opacity="1"
         stroke="none"
         d="m 30.618742,173.82719 c 0,-5.225 0,-10.44995 0,-13.85835 12.122315,0.31036 23.738724,1.55764 35.156071,0.51779 6.133239,-0.55859 12.083657,-4.73488 17.836764,-7.82404 11.529521,-6.1908 23.016633,-5.90084 34.690553,-0.7359 3.14782,1.39271 6.52583,2.39329 9.42203,4.20356 15.86139,9.91397 31.24018,7.85892 46.7447,-1.06297 10.76185,-6.19277 22.23297,-9.12647 34.6039,-5.38039 12.9381,3.91783 14.50044,6.57334 10.8429,21.03258 -16.86062,-8.32593 -32.03953,-5.75967 -47.01665,2.92752 -13.73001,7.96381 -28.24165,10.05995 -42.11897,1.51124 -17.72567,-10.91936 -35.092438,-12.51106 -53.243829,-1.90907 -15.519428,9.06473 -31.170267,9.56659 -46.917469,0.57803 z"
         id="path4-6"
         style="fill:#1c3557;fill-opacity:1;stroke-width:2.08747" /><path
         fill="#5bcde7"
         opacity="1"
         stroke="none"
         d="m 45.721048,200.00821 c 11.95779,3.86719 22.532489,0.78964 31.767769,-4.34901 17.546316,-9.76307 34.529953,-9.28765 51.623023,-0.10224 14.93421,8.02528 29.18124,7.21273 44.01495,-0.51394 13.04928,-6.79715 26.99021,-10.38395 41.32198,-3.01126 2.93594,1.51034 5.03165,4.48224 9.10119,8.24889 -4.04458,0.49156 -5.16498,0.98562 -5.79473,0.65168 -13.99434,-7.42078 -28.07107,-6.45651 -41.3128,0.96754 -17.79665,9.97783 -35.02572,9.83472 -52.34583,-0.35647 -16.68306,-9.8164 -32.264156,-4.68782 -47.738805,2.82113 -12.36945,6.00217 -24.968486,7.74118 -37.51932,0.8626 -2.6473,-1.4509 -4.218225,-4.65933 -6.285104,-7.05795 0.724573,-0.64386 1.44915,-1.28772 2.173724,-1.93158 3.400723,1.18954 6.801425,2.37907 10.993953,3.77059 z"
         id="path6-3"
         style="fill:#71cae8;fill-opacity:1;stroke-width:1.96482" /><path
         fill="#edf6fc"
         opacity="1"
         stroke="none"
         d="m 31.153282,179.92086 c 15.881678,8.32948 31.530781,7.81692 47.048487,-1.44086 18.149356,-10.82782 35.514211,-9.2022 53.237941,1.94973 13.87577,8.73078 28.3858,6.59 42.11427,-1.54344 14.97545,-8.87221 30.1527,-11.4931 46.69292,-2.21544 1.29391,1.95109 2.0598,3.56518 2.36918,5.26973 0.24043,1.32442 -0.0886,2.76169 -0.24239,5.56904 -18.69776,-11.85616 -35.87227,-6.44218 -52.87449,2.89784 -12.41074,6.81773 -24.71054,5.99844 -37.60589,0.20679 -19.07191,-8.56565 -38.326774,-13.50695 -58.141622,-0.48295 -11.42101,7.50684 -24.397728,7.50121 -36.467868,1.036 -3.000573,-1.60725 -4.225616,-6.83332 -6.130538,-11.24651 z"
         id="path5-7"
         style="stroke-width:2.10945" /></g><g
       id="g2"
       transform="matrix(0.96066,0,0,1.03346,-0.34683184,-74.932805)"><path
         fill="#ffed00"
         d="M 55.620374,117.63891 H 206.97065 c 10.82989,0 19.60749,8.85241 19.60749,19.76668 v 39.53338 c 0,10.9222 -8.7776,19.77463 -19.60749,19.77463 H 55.620374 c -10.822014,0 -19.599603,-8.85243 -19.599603,-19.77463 v -39.53338 c 0,-10.91427 8.777589,-19.76668 19.599603,-19.76668 z m 0,0"
         fill-opacity="1"
         fill-rule="nonzero"
         id="path81"
         style="stroke-width:2.02933" /><g
         fill="#000000"
         fill-opacity="1"
         id="g84"
         transform="matrix(2.0278522,0,0,2.0038063,-234.62357,-421.5024)"><g
           transform="translate(141.93298,296.70777)"
           id="g83"><g
             id="g82"><path
               d="M 11.25,-4.359375 C 11.25,-2.941406 10.738281,-1.820312 9.71875,-1 8.695312,-0.1875 7.273438,0.21875 5.453125,0.21875 c -1.679687,0 -3.15625,-0.3164062 -4.4375,-0.953125 v -3.09375 c 1.050781,0.480469 1.941406,0.820313 2.671875,1.015625 0.738281,0.1875 1.414062,0.28125 2.03125,0.28125 0.726562,0 1.285156,-0.140625 1.671875,-0.421875 0.394531,-0.28125 0.59375,-0.695313 0.59375,-1.25 0,-0.300781 -0.089844,-0.570313 -0.265625,-0.8125 -0.167969,-0.238281 -0.417969,-0.46875 -0.75,-0.6875 C 6.632812,-5.929688 5.957031,-6.289062 4.9375,-6.78125 3.96875,-7.226562 3.242188,-7.660156 2.765625,-8.078125 2.285156,-8.492188 1.898438,-8.976562 1.609375,-9.53125 1.328125,-10.082031 1.1875,-10.726562 1.1875,-11.46875 c 0,-1.382812 0.46875,-2.472656 1.40625,-3.265625 0.945312,-0.800781 2.253906,-1.203125 3.921875,-1.203125 0.8125,0 1.585937,0.101562 2.328125,0.296875 0.738281,0.199219 1.515625,0.46875 2.328125,0.8125 l -1.078125,2.59375 C 9.257812,-12.578125 8.566406,-12.816406 8.015625,-12.953125 7.472656,-13.085938 6.9375,-13.15625 6.40625,-13.15625 c -0.636719,0 -1.121094,0.148438 -1.453125,0.4375 -0.335937,0.292969 -0.5,0.679688 -0.5,1.15625 0,0.292969 0.066406,0.546875 0.203125,0.765625 0.132812,0.21875 0.347656,0.433594 0.640625,0.640625 0.300781,0.199219 1.003906,0.5625 2.109375,1.09375 1.46875,0.699219 2.472656,1.402344 3.015625,2.109375 0.550781,0.710937 0.828125,1.574219 0.828125,2.59375 z m 0,0"
               id="path82" /></g></g></g><g
         fill="#000000"
         fill-opacity="1"
         id="g87"
         transform="matrix(2.0278522,0,0,2.0038063,-234.62357,-421.5024)"><g
           transform="translate(154.04802,296.70777)"
           id="g86"><g
             id="g85"><path
               d="m 1.578125,-15.109375 c 0,-1.070313 0.59375,-1.609375 1.78125,-1.609375 1.1875,0 1.78125,0.539062 1.78125,1.609375 0,0.5 -0.152344,0.898437 -0.453125,1.1875 C 4.394531,-13.640625 3.953125,-13.5 3.359375,-13.5 c -1.1875,0 -1.78125,-0.535156 -1.78125,-1.609375 z M 5,0 H 1.71875 V -12.015625 H 5 Z m 0,0"
               id="path84" /></g></g></g><g
         fill="#000000"
         fill-opacity="1"
         id="g90"
         transform="matrix(2.0278522,0,0,2.0038063,-234.62357,-421.5024)"><g
           transform="translate(160.7607,296.70777)"
           id="g89"><g
             id="g88"><path
               d="M 12.46875,0 H 9.203125 v -7.015625 c 0,-0.863281 -0.148437,-1.507813 -0.4375,-1.9375 -0.292969,-0.4375 -0.75,-0.65625 -1.375,-0.65625 -0.835937,0 -1.445313,0.308594 -1.828125,0.921875 C 5.1875,-8.070312 5,-7.0625 5,-5.65625 V 0 H 1.71875 v -12.015625 h 2.5 l 0.4375,1.546875 h 0.1875 c 0.320312,-0.550781 0.785156,-0.984375 1.390625,-1.296875 0.613281,-0.3125 1.316406,-0.46875 2.109375,-0.46875 1.789062,0 3.003906,0.589844 3.640625,1.765625 h 0.296875 c 0.320312,-0.5625 0.796875,-0.992188 1.421875,-1.296875 0.625,-0.3125 1.332031,-0.46875 2.125,-0.46875 1.351563,0 2.378906,0.351563 3.078125,1.046875 0.695312,0.699219 1.046875,1.820312 1.046875,3.359375 V 0 h -3.28125 v -7.015625 c 0,-0.863281 -0.148437,-1.507813 -0.4375,-1.9375 -0.292969,-0.4375 -0.746094,-0.65625 -1.359375,-0.65625 -0.804688,0 -1.40625,0.289063 -1.8125,0.859375 -0.398438,0.574219 -0.59375,1.480469 -0.59375,2.71875 z m 0,0"
               id="path87" /></g></g></g><g
         fill="#000000"
         fill-opacity="1"
         id="g93"
         transform="matrix(2.0278522,0,0,2.0038063,-234.62357,-421.5024)"><g
           transform="translate(182.35941,296.70777)"
           id="g92"><g
             id="g91"><path
               d="M 0.65625,-4.5625 V -7.234375 H 6.421875 V -4.5625 Z m 0,0"
               id="path90" /></g></g></g><g
         fill="#000000"
         fill-opacity="1"
         id="g96"
         transform="matrix(2.0278522,0,0,2.0038063,-234.62357,-421.5024)"><g
           transform="translate(189.43726,296.70777)"
           id="g95"><g
             id="g94"><path
               d="M 11.59375,0 10.453125,-3.734375 H 4.734375 L 3.59375,0 H 0 l 5.546875,-15.765625 h 4.0625 L 15.171875,0 Z M 9.65625,-6.53125 C 8.601562,-9.914062 8.007812,-11.828125 7.875,-12.265625 7.75,-12.710938 7.65625,-13.066406 7.59375,-13.328125 7.351562,-12.410156 6.675781,-10.144531 5.5625,-6.53125 Z m 0,0"
               id="path93" /></g></g></g><g
         fill="#000000"
         fill-opacity="1"
         id="g99"
         transform="matrix(2.0278522,0,0,2.0038063,-234.62357,-421.5024)"><g
           transform="translate(204.61328,296.70777)"
           id="g98"><g
             id="g97"><path
               d="m 8.640625,-13.15625 c -1.25,0 -2.21875,0.476562 -2.90625,1.421875 -0.6875,0.9375 -1.03125,2.246094 -1.03125,3.921875 0,3.5 1.3125,5.25 3.9375,5.25 1.101563,0 2.441406,-0.273438 4.015625,-0.828125 v 2.796875 c -1.292969,0.5429688 -2.730469,0.8125 -4.3125,0.8125 -2.292969,0 -4.042969,-0.691406 -5.25,-2.078125 -1.210938,-1.382813 -1.8125,-3.375 -1.8125,-5.96875 0,-1.632813 0.296875,-3.066406 0.890625,-4.296875 0.59375,-1.226562 1.445313,-2.171875 2.5625,-2.828125 1.113281,-0.65625 2.414063,-0.984375 3.90625,-0.984375 1.53125,0 3.066406,0.371094 4.609375,1.109375 L 12.171875,-12.125 c -0.585937,-0.269531 -1.179687,-0.507812 -1.78125,-0.71875 -0.59375,-0.207031 -1.179687,-0.3125 -1.75,-0.3125 z m 0,0"
               id="path96" /></g></g></g></g></g><defs
     id="defs6"><linearGradient
       id="swatch4"
       inkscape:swatch="solid"><stop
         style="stop-color:#99cc00;stop-opacity:1;"
         offset="0"
         id="stop5" /></linearGradient><clipPath
       id="clip0_110_136"><rect
         width="256"
         height="256"
         fill="white"
         id="rect6" /></clipPath><linearGradient
       inkscape:collect="always"
       xlink:href="#swatch4"
       id="linearGradient5"
       x1="157.10588"
       y1="211.32082"
       x2="193.80776"
       y2="211.32082"
       gradientUnits="userSpaceOnUse" /><filter
       style="color-interpolation-filters:sRGB"
       id="filter12"
       inkscape:label="filtro1"><feDiffuseLighting
         id="feDiffuseLighting12"
         lighting-color="rgb(255,255,121)"
         surfaceScale="-0.22727272727272663" /></filter><filter
       inkscape:label="Swiss Cheese"
       inkscape:menu="Overlays"
       inkscape:menu-tooltip="Random inner-bevel holes"
       style="color-interpolation-filters:sRGB;"
       id="filter254"
       x="-0.087780084"
       y="-0.43899979"
       width="1.1755602"
       height="1.8779996"><feTurbulence
         type="fractalNoise"
         baseFrequency="0.097"
         numOctaves="1"
         id="feTurbulence250" /><feColorMatrix
         values="1 0 0 0 0 0 1 0 0 0 0 0 1 0 0 0 0 0 20 -14"
         id="feColorMatrix250" /><feGaussianBlur
         stdDeviation="3.7"
         id="feGaussianBlur250" /><feColorMatrix
         values="1 0 0 0 0 0 1 0 0 0 0 0 1 0 0 0 0 0 70 0"
         result="result0"
         id="feColorMatrix251" /><feGaussianBlur
         stdDeviation="3.9"
         result="result1"
         id="feGaussianBlur251" /><feDiffuseLighting
         surfaceScale="-5"
         diffuseConstant="1.29"
         id="feDiffuseLighting251"><feDistantLight
           azimuth="225"
           elevation="45"
           id="feDistantLight251" /></feDiffuseLighting><feComposite
         in2="result0"
         operator="in"
         id="feComposite251" /><feBlend
         in2="SourceGraphic"
         mode="multiply"
         id="feBlend251" /><feComposite
         in2="SourceGraphic"
         operator="in"
         result="result2"
         id="feComposite252" /><feSpecularLighting
         in="result1"
         surfaceScale="-5"
         specularExponent="4.5"
         specularConstant="0.7"
         id="feSpecularLighting252"><feDistantLight
           elevation="33"
           azimuth="225"
           id="feDistantLight252" /></feSpecularLighting><feComposite
         in2="result0"
         operator="in"
         id="feComposite253" /><feComposite
         in2="result2"
         operator="atop"
         id="feComposite254" /></filter><filter
       inkscape:label="Swiss Cheese"
       inkscape:menu="Overlays"
       inkscape:menu-tooltip="Random inner-bevel holes"
       style="color-interpolation-filters:sRGB;"
       id="filter258"
       x="-0.08802584"
       y="-0.43781585"
       width="1.1760517"
       height="1.8756317"><feTurbulence
         type="fractalNoise"
         baseFrequency="0.097"
         numOctaves="1"
         id="feTurbulence254" /><feColorMatrix
         values="1 0 0 0 0 0 1 0 0 0 0 0 1 0 0 0 0 0 20 -14"
         id="feColorMatrix254" /><feGaussianBlur
         stdDeviation="3.7"
         id="feGaussianBlur254" /><feColorMatrix
         values="1 0 0 0 0 0 1 0 0 0 0 0 1 0 0 0 0 0 70 0"
         result="result0"
         id="feColorMatrix255" /><feGaussianBlur
         stdDeviation="3.9"
         result="result1"
         id="feGaussianBlur255" /><feDiffuseLighting
         surfaceScale="-5"
         diffuseConstant="1.29"
         id="feDiffuseLighting255"><feDistantLight
           azimuth="225"
           elevation="45"
           id="feDistantLight255" /></feDiffuseLighting><feComposite
         in2="result0"
         operator="in"
         id="feComposite255" /><feBlend
         in2="SourceGraphic"
         mode="multiply"
         id="feBlend255" /><feComposite
         in2="SourceGraphic"
         operator="in"
         result="result2"
         id="feComposite256" /><feSpecularLighting
         in="result1"
         surfaceScale="-5"
         specularExponent="4.5"
         specularConstant="0.7"
         id="feSpecularLighting256"><feDistantLight
           elevation="33"
           azimuth="225"
           id="feDistantLight256" /></feSpecularLighting><feComposite
         in2="result0"
         operator="in"
         id="feComposite257" /><feComposite
         in2="result2"
         operator="atop"
         id="feComposite258" /></filter><filter
       inkscape:label="Swiss Cheese"
       inkscape:menu="Overlays"
       inkscape:menu-tooltip="Random inner-bevel holes"
       style="color-interpolation-filters:sRGB;"
       id="filter262"
       x="-0.088033505"
       y="-0.49377652"
       width="1.176067"
       height="1.987553"><feTurbulence
         type="fractalNoise"
         baseFrequency="0.097"
         numOctaves="1"
         id="feTurbulence258" /><feColorMatrix
         values="1 0 0 0 0 0 1 0 0 0 0 0 1 0 0 0 0 0 20 -14"
         id="feColorMatrix258" /><feGaussianBlur
         stdDeviation="3.7"
         id="feGaussianBlur258" /><feColorMatrix
         values="1 0 0 0 0 0 1 0 0 0 0 0 1 0 0 0 0 0 70 0"
         result="result0"
         id="feColorMatrix259" /><feGaussianBlur
         stdDeviation="3.9"
         result="result1"
         id="feGaussianBlur259" /><feDiffuseLighting
         surfaceScale="-5"
         diffuseConstant="1.29"
         id="feDiffuseLighting259"><feDistantLight
           azimuth="225"
           elevation="45"
           id="feDistantLight259" /></feDiffuseLighting><feComposite
         in2="result0"
         operator="in"
         id="feComposite259" /><feBlend
         in2="SourceGraphic"
         mode="multiply"
         id="feBlend259" /><feComposite
         in2="SourceGraphic"
         operator="in"
         result="result2"
         id="feComposite260" /><feSpecularLighting
         in="result1"
         surfaceScale="-5"
         specularExponent="4.5"
         specularConstant="0.7"
         id="feSpecularLighting260"><feDistantLight
           elevation="33"
           azimuth="225"
           id="feDistantLight260" /></feSpecularLighting><feComposite
         in2="result0"
         operator="in"
         id="feComposite261" /><feComposite
         in2="result2"
         operator="atop"
         id="feComposite262" /></filter></defs></svg>
