<?xml version="1.0" encoding="UTF-8" standalone="no"?>
<svg
   width="150"
   zoomAndPan="magnify"
   viewBox="0 0 112.5 112.5"
   height="150"
   preserveAspectRatio="xMidYMid"
   version="1.0"
   id="svg100"
   sodipodi:docname="registro.svg"
   xml:space="preserve"
   inkscape:version="1.3 (0e150ed6c4, 2023-07-21)"
   xmlns:inkscape="http://www.inkscape.org/namespaces/inkscape"
   xmlns:sodipodi="http://sodipodi.sourceforge.net/DTD/sodipodi-0.dtd"
   xmlns="http://www.w3.org/2000/svg"
   xmlns:svg="http://www.w3.org/2000/svg"><sodipodi:namedview
     id="namedview100"
     pagecolor="#ffffff"
     bordercolor="#000000"
     borderopacity="0.25"
     inkscape:showpageshadow="2"
     inkscape:pageopacity="0.0"
     inkscape:pagecheckerboard="0"
     inkscape:deskcolor="#d1d1d1"
     inkscape:zoom="1.642"
     inkscape:cx="252.13155"
     inkscape:cy="287.14982"
     inkscape:window-width="1920"
     inkscape:window-height="1017"
     inkscape:window-x="-8"
     inkscape:window-y="-8"
     inkscape:window-maximized="1"
     inkscape:current-layer="layer1" /><defs
     id="defs26"><g
       id="g1" /><clipPath
       id="b8525f341f"><path
         d="m 224,64.464844 h 5 V 99 h -5 z m 0,0"
         clip-rule="nonzero"
         id="path1" /></clipPath><clipPath
       id="ac3e938f6a"><path
         d="m 206,64.464844 h 4 V 99 h -4 z m 0,0"
         clip-rule="nonzero"
         id="path2" /></clipPath><clipPath
       id="e2d112d151"><path
         d="m 187,64.464844 h 5 V 99 h -5 z m 0,0"
         clip-rule="nonzero"
         id="path3" /></clipPath><clipPath
       id="3efb7c6d20"><path
         d="m 169,64.464844 h 4 V 99 h -4 z m 0,0"
         clip-rule="nonzero"
         id="path4" /></clipPath><clipPath
       id="7d9ebcf597"><path
         d="m 151,64.464844 h 4 V 99 h -4 z m 0,0"
         clip-rule="nonzero"
         id="path5" /></clipPath><clipPath
       id="8bff8f2bc7"><path
         d="m 132,64.464844 h 5 V 99 h -5 z m 0,0"
         clip-rule="nonzero"
         id="path6" /></clipPath><clipPath
       id="20446e5919"><path
         d="m 224,209 h 5 v 34.71484 h -5 z m 0,0"
         clip-rule="nonzero"
         id="path7" /></clipPath><clipPath
       id="1398fa6fd3"><path
         d="m 206,209 h 4 v 34.71484 h -4 z m 0,0"
         clip-rule="nonzero"
         id="path8" /></clipPath><clipPath
       id="0b933b9e06"><path
         d="m 187,209 h 5 v 34.71484 h -5 z m 0,0"
         clip-rule="nonzero"
         id="path9" /></clipPath><clipPath
       id="94be432b0c"><path
         d="m 169,209 h 4 v 34.71484 h -4 z m 0,0"
         clip-rule="nonzero"
         id="path10" /></clipPath><clipPath
       id="e2c3cef8ee"><path
         d="m 151,209 h 4 v 34.71484 h -4 z m 0,0"
         clip-rule="nonzero"
         id="path11" /></clipPath><clipPath
       id="528cdb72d3"><path
         d="m 132,209 h 5 v 34.71484 h -5 z m 0,0"
         clip-rule="nonzero"
         id="path12" /></clipPath><clipPath
       id="d3e404183e"><path
         d="M 90.605469,106 H 126 v 4 H 90.605469 Z m 0,0"
         clip-rule="nonzero"
         id="path13" /></clipPath><clipPath
       id="5c80ba8e34"><path
         d="M 90.605469,124 H 126 v 5 H 90.605469 Z m 0,0"
         clip-rule="nonzero"
         id="path14" /></clipPath><clipPath
       id="596eec025b"><path
         d="M 90.605469,143 H 126 v 4 H 90.605469 Z m 0,0"
         clip-rule="nonzero"
         id="path15" /></clipPath><clipPath
       id="7453984d37"><path
         d="M 90.605469,161 H 126 v 5 H 90.605469 Z m 0,0"
         clip-rule="nonzero"
         id="path16" /></clipPath><clipPath
       id="858e516ca4"><path
         d="M 90.605469,180 H 126 v 4 H 90.605469 Z m 0,0"
         clip-rule="nonzero"
         id="path17" /></clipPath><clipPath
       id="1bd2cc62fa"><path
         d="M 90.605469,198 H 126 v 4 H 90.605469 Z m 0,0"
         clip-rule="nonzero"
         id="path18" /></clipPath><clipPath
       id="dd378d65d3"><path
         d="m 235,106 h 34.85547 v 4 H 235 Z m 0,0"
         clip-rule="nonzero"
         id="path19" /></clipPath><clipPath
       id="96ad6bb40f"><path
         d="m 235,124 h 34.85547 v 5 H 235 Z m 0,0"
         clip-rule="nonzero"
         id="path20" /></clipPath><clipPath
       id="cd8ddf779d"><path
         d="m 235,143 h 34.85547 v 4 H 235 Z m 0,0"
         clip-rule="nonzero"
         id="path21" /></clipPath><clipPath
       id="2b1e2b2fa7"><path
         d="m 235,161 h 34.85547 v 5 H 235 Z m 0,0"
         clip-rule="nonzero"
         id="path22" /></clipPath><clipPath
       id="b9ebf00280"><path
         d="m 235,180 h 34.85547 v 4 H 235 Z m 0,0"
         clip-rule="nonzero"
         id="path23" /></clipPath><clipPath
       id="832c1e5695"><path
         d="m 235,198 h 34.85547 v 4 H 235 Z m 0,0"
         clip-rule="nonzero"
         id="path24" /></clipPath><clipPath
       id="7926a1729c"><path
         d="m 102.69922,318 h 162.75 v 10 h -162.75 z m 0,0"
         clip-rule="nonzero"
         id="path25" /></clipPath><clipPath
       id="d77e3e3944"><path
         d="m 105.28906,324 h 156 v 10 h -156 z m 0,0"
         clip-rule="nonzero"
         id="path26" /></clipPath><filter
       inkscape:label="In and Out"
       inkscape:menu="Shadows and Glows"
       inkscape:menu-tooltip="Inner colorized shadow, outer black shadow"
       style="color-interpolation-filters:sRGB"
       id="filter3"
       x="-0.63274974"
       y="-0.60891974"
       width="2.5950565"
       height="2.5349851"><feGaussianBlur
         result="result0"
         in="SourceAlpha"
         stdDeviation="4"
         id="feGaussianBlur3" /><feOffset
         dx="5"
         dy="5"
         result="result4"
         id="feOffset3" /><feComposite
         in="SourceGraphic"
         in2="result4"
         operator="xor"
         result="result3"
         id="feComposite3" /></filter><filter
       inkscape:label="In and Out"
       inkscape:menu="Shadows and Glows"
       inkscape:menu-tooltip="Inner colorized shadow, outer black shadow"
       style="color-interpolation-filters:sRGB"
       id="filter3-2"
       x="-0.63274974"
       y="-0.60891974"
       width="2.5950565"
       height="2.5349851"><feGaussianBlur
         result="result0"
         in="SourceAlpha"
         stdDeviation="4"
         id="feGaussianBlur3-8" /><feOffset
         dx="5"
         dy="5"
         result="result4"
         id="feOffset3-3" /><feComposite
         in="SourceGraphic"
         in2="result4"
         operator="xor"
         result="result3"
         id="feComposite3-0" /></filter><clipPath
       id="d77e3e3944-9"><path
         d="m 105.28906,324 h 156 v 10 h -156 z m 0,0"
         clip-rule="nonzero"
         id="path26-4" /></clipPath><clipPath
       id="d3e404183e-0"><path
         d="M 90.605469,106 H 126 v 4 H 90.605469 Z m 0,0"
         clip-rule="nonzero"
         id="path13-7" /></clipPath><clipPath
       id="5c80ba8e34-2"><path
         d="M 90.605469,124 H 126 v 5 H 90.605469 Z m 0,0"
         clip-rule="nonzero"
         id="path14-4" /></clipPath><clipPath
       id="596eec025b-4"><path
         d="M 90.605469,143 H 126 v 4 H 90.605469 Z m 0,0"
         clip-rule="nonzero"
         id="path15-2" /></clipPath><clipPath
       id="7453984d37-3"><path
         d="M 90.605469,161 H 126 v 5 H 90.605469 Z m 0,0"
         clip-rule="nonzero"
         id="path16-0" /></clipPath><clipPath
       id="858e516ca4-7"><path
         d="M 90.605469,180 H 126 v 4 H 90.605469 Z m 0,0"
         clip-rule="nonzero"
         id="path17-6" /></clipPath><clipPath
       id="1bd2cc62fa-0"><path
         d="M 90.605469,198 H 126 v 4 H 90.605469 Z m 0,0"
         clip-rule="nonzero"
         id="path18-4" /></clipPath><clipPath
       id="20446e5919-6"><path
         d="m 224,209 h 5 v 34.71484 h -5 z m 0,0"
         clip-rule="nonzero"
         id="path7-6" /></clipPath><clipPath
       id="1398fa6fd3-0"><path
         d="m 206,209 h 4 v 34.71484 h -4 z m 0,0"
         clip-rule="nonzero"
         id="path8-4" /></clipPath><clipPath
       id="0b933b9e06-8"><path
         d="m 187,209 h 5 v 34.71484 h -5 z m 0,0"
         clip-rule="nonzero"
         id="path9-4" /></clipPath><clipPath
       id="94be432b0c-9"><path
         d="m 169,209 h 4 v 34.71484 h -4 z m 0,0"
         clip-rule="nonzero"
         id="path10-5" /></clipPath><clipPath
       id="e2c3cef8ee-5"><path
         d="m 151,209 h 4 v 34.71484 h -4 z m 0,0"
         clip-rule="nonzero"
         id="path11-5" /></clipPath><clipPath
       id="528cdb72d3-3"><path
         d="m 132,209 h 5 v 34.71484 h -5 z m 0,0"
         clip-rule="nonzero"
         id="path12-8" /></clipPath></defs><g
     id="g3"
     transform="matrix(0.70938096,0,0,0.75278948,53.955286,-70.277874)"
     style="mix-blend-mode:overlay"><g
       id="g2"
       style="mix-blend-mode:normal"><path
         fill="#ffed00"
         d="m -31.93055,157.10183 h 74.89844 c 5.35937,0 9.70312,4.34375 9.70312,9.69922 v 19.39844 c 0,5.35937 -4.34375,9.70312 -9.70312,9.70312 h -74.89844 c -5.35547,0 -9.69922,-4.34375 -9.69922,-9.70312 v -19.39844 c 0,-5.35547 4.34375,-9.69922 9.69922,-9.69922 z m 0,0"
         fill-opacity="1"
         fill-rule="nonzero"
         id="path81"
         style="mix-blend-mode:normal;stroke:#000000;stroke-opacity:1" /><text
         xml:space="preserve"
         style="font-size:19.747px;font-family:'Arial Unicode MS';-inkscape-font-specification:'Arial Unicode MS, Normal';display:inline;mix-blend-mode:normal;fill:#000000;fill-opacity:1;stroke:#000000;stroke-width:19.1605;stroke-linejoin:round;stroke-opacity:0;paint-order:fill markers stroke"
         x="-31.563557"
         y="195.83676"
         id="text1"
         transform="scale(1.0801701,0.92578012)"><tspan
           sodipodi:role="line"
           id="tspan1"
           style="fill:#000000;fill-opacity:1;stroke-width:19.1605"
           x="-31.563557"
           y="195.83676">Registro</tspan></text></g></g><g
     inkscape:groupmode="layer"
     id="layer1"
     inkscape:label="Layer 1"
     style="mix-blend-mode:color-burn"><rect
       width="90.906624"
       height="62.673973"
       rx="18.18132"
       fill="#0C0A09"
       id="rect1-8"
       inkscape:label="rect1"
       style="mix-blend-mode:normal;fill:#d5f3ff;fill-opacity:1;stroke-width:0.29485"
       x="15.041119"
       y="30.103233" /></g></svg>
